<?xml version="1.0" encoding="UTF-8" standalone="no"?>
<!-- Created with Inkscape (http://www.inkscape.org/) -->

<svg
   width="198.70415"
   height="198.70415"
   viewBox="0 0 52.573803 52.573804"
   version="1.1"
   id="svg5"
   xmlns="http://www.w3.org/2000/svg"
   xmlns:svg="http://www.w3.org/2000/svg">
  <defs
     id="defs2" />
  <g
     id="layer1"
     transform="translate(-125.19361,-27.179689)">
    <circle
       style="fill:none;stroke:#000000;stroke-width:2.64583;stroke-linecap:square;stroke-dasharray:none;stroke-opacity:1"
       id="path3015"
       cx="151.48051"
       cy="53.466591"
       r="24.963985" />
    <path
       id="path1514"
       style="fill:#000000;stroke-width:0.721995"
       d="m 151.40648,33.678516 a 7.9215837,7.9215837 0 0 0 -7.92148,7.92148 7.9215837,7.9215837 0 0 0 7.92148,7.92148 7.9215837,7.9215837 0 0 0 7.92148,-7.92148 7.9215837,7.9215837 0 0 0 -7.92148,-7.92148 z m -3.08612,4.225065 a 1.0573983,1.0573983 0 0 1 1.0573,1.0573 1.0573983,1.0573983 0 0 1 -1.0573,1.057816 1.0573983,1.0573983 0 0 1 -1.0573,-1.057816 1.0573983,1.0573983 0 0 1 1.0573,-1.0573 z m 6.35,0 a 1.0573983,1.0573983 0 0 1 1.0573,1.0573 1.0573983,1.0573983 0 0 1 -1.0573,1.057816 1.0573983,1.0573983 0 0 1 -1.0573,-1.057816 1.0573983,1.0573983 0 0 1 1.0573,-1.0573 z m -8.369,6.359818 h 9.91154 a 5.3479953,5.3479953 0 0 1 -4.95577,3.345533 5.3479953,5.3479953 0 0 1 -4.95577,-3.345533 z" />
    <path
       style="fill:#009ee0;stroke:#000000;stroke-width:3.175;stroke-linecap:square;stroke-dasharray:none;stroke-opacity:1"
       d="M 151.40642,49.090443 V 65.40953"
       id="path1624" />
    <path
       style="fill:#000000;stroke:#000000;stroke-width:3.175;stroke-linecap:round;stroke-dasharray:none;stroke-opacity:1"
       d="m 151.40642,64.893176 7.37801,9.073393"
       id="path1734" />
    <path
       style="fill:#000000;stroke:#000000;stroke-width:3.175;stroke-linecap:round;stroke-dasharray:none;stroke-opacity:1"
       d="m 151.37605,64.893176 -7.37801,9.073393"
       id="path1736" />
    <path
       style="fill:#000000;stroke:#000000;stroke-width:3.175;stroke-linecap:round;stroke-dasharray:none;stroke-opacity:1"
       d="m 151.40642,53.251502 7.37801,9.073393"
       id="path1738" />
    <path
       style="fill:#000000;stroke:#000000;stroke-width:3.175;stroke-linecap:round;stroke-dasharray:none;stroke-opacity:1"
       d="m 151.37605,53.251502 -7.37801,9.073393"
       id="path1740" />
    <path
       style="fill:#ffffff;stroke:#000000;stroke-width:0.529167;stroke-linecap:square;stroke-dasharray:none;stroke-opacity:1"
       d="m 146.05947,36.652215 -1.66779,-2.256427"
       id="path2995" />
    <path
       style="fill:#ffffff;stroke:#000000;stroke-width:0.529167;stroke-linecap:square;stroke-dasharray:none;stroke-opacity:1"
       d="m 147.45257,35.906614 -1.68741,-3.335586"
       id="path2997" />
    <path
       style="fill:#ffffff;stroke:#000000;stroke-width:0.529167;stroke-linecap:square;stroke-dasharray:none;stroke-opacity:1"
       d="m 148.57097,35.573054 -0.80446,-2.727333"
       id="path2999" />
    <path
       style="fill:#ffffff;stroke:#000000;stroke-width:0.529167;stroke-linecap:square;stroke-dasharray:none;stroke-opacity:1"
       d="m 149.86596,35.435706 -0.8437,-4.061566"
       id="path3001" />
    <path
       style="fill:#ffffff;stroke:#000000;stroke-width:0.529167;stroke-linecap:square;stroke-dasharray:none;stroke-opacity:1"
       d="m 150.88626,35.31798 -0.19621,-2.962786"
       id="path3003" />
    <path
       style="fill:#ffffff;stroke:#000000;stroke-width:0.529167;stroke-linecap:square;stroke-dasharray:none;stroke-opacity:1"
       d="m 152.33822,35.239497 -0.0196,-2.531124"
       id="path3005" />
    <path
       style="fill:#ffffff;stroke:#000000;stroke-width:0.529167;stroke-linecap:square;stroke-dasharray:none;stroke-opacity:1"
       d="m 153.63322,35.710402 0.68673,-2.531121"
       id="path3007" />
    <path
       style="fill:#ffffff;stroke:#000000;stroke-width:0.529167;stroke-linecap:square;stroke-dasharray:none;stroke-opacity:1"
       d="m 155.39912,36.593354 0.90257,-2.531124"
       id="path3009" />
    <path
       style="fill:#ffffff;stroke:#000000;stroke-width:0.529167;stroke-linecap:square;stroke-dasharray:none;stroke-opacity:1"
       d="m 154.30033,35.259118 0.86333,-1.569688"
       id="path3011" />
    <path
       style="fill:#ffffff;stroke:#000000;stroke-width:0.529167;stroke-linecap:square;stroke-dasharray:none;stroke-opacity:1"
       d="m 156.53714,35.886993 1.31461,-2.099458"
       id="path3013" />
    <path
       style="fill:#009ee0;stroke:#000000;stroke-width:3.10941;stroke-linecap:square;stroke-dasharray:none;stroke-opacity:1"
       d="M 151.40642,49.822615 V 65.47444"
       id="path3075" />
    <path
       style="fill:#000000;stroke:#000000;stroke-width:3.175;stroke-linecap:round;stroke-dasharray:none;stroke-opacity:1"
       d="m 151.40642,64.893176 7.37801,9.073393"
       id="path3077" />
    <path
       style="fill:#000000;stroke:#000000;stroke-width:3.175;stroke-linecap:round;stroke-dasharray:none;stroke-opacity:1"
       d="m 151.37605,64.893176 -7.37801,9.073393"
       id="path3079" />
    <path
       style="fill:#000000;stroke:#000000;stroke-width:3.175;stroke-linecap:round;stroke-dasharray:none;stroke-opacity:1"
       d="m 151.40642,53.251502 7.37801,9.073393"
       id="path3081" />
    <path
       style="fill:#000000;stroke:#000000;stroke-width:3.175;stroke-linecap:round;stroke-dasharray:none;stroke-opacity:1"
       d="m 151.37605,53.251502 -7.37801,9.073393"
       id="path3083" />
    <path
       style="fill:#ffffff;stroke:#000000;stroke-width:0.529167;stroke-linecap:square;stroke-dasharray:none;stroke-opacity:1"
       d="m 146.05947,36.652215 -1.66779,-2.256427"
       id="path3091" />
    <path
       style="fill:#ffffff;stroke:#000000;stroke-width:0.529167;stroke-linecap:square;stroke-dasharray:none;stroke-opacity:1"
       d="m 147.45257,35.906614 -1.68741,-3.335586"
       id="path3093" />
    <path
       style="fill:#ffffff;stroke:#000000;stroke-width:0.529167;stroke-linecap:square;stroke-dasharray:none;stroke-opacity:1"
       d="m 148.57097,35.573054 -0.80446,-2.727333"
       id="path3095" />
    <path
       style="fill:#ffffff;stroke:#000000;stroke-width:0.529167;stroke-linecap:square;stroke-dasharray:none;stroke-opacity:1"
       d="m 149.86596,35.435706 -0.8437,-4.061566"
       id="path3097" />
    <path
       style="fill:#ffffff;stroke:#000000;stroke-width:0.529167;stroke-linecap:square;stroke-dasharray:none;stroke-opacity:1"
       d="m 150.88626,35.31798 -0.19621,-2.962786"
       id="path3099" />
    <path
       style="fill:#ffffff;stroke:#000000;stroke-width:0.529167;stroke-linecap:square;stroke-dasharray:none;stroke-opacity:1"
       d="m 152.33822,35.239497 -0.0196,-2.531124"
       id="path3101" />
    <path
       style="fill:#ffffff;stroke:#000000;stroke-width:0.529167;stroke-linecap:square;stroke-dasharray:none;stroke-opacity:1"
       d="m 153.63322,35.710402 0.68673,-2.531121"
       id="path3103" />
    <path
       style="fill:#ffffff;stroke:#000000;stroke-width:0.529167;stroke-linecap:square;stroke-dasharray:none;stroke-opacity:1"
       d="m 155.39912,36.593354 0.90257,-2.531124"
       id="path3105" />
    <path
       style="fill:#ffffff;stroke:#000000;stroke-width:0.529167;stroke-linecap:square;stroke-dasharray:none;stroke-opacity:1"
       d="m 154.30033,35.259118 0.86333,-1.569688"
       id="path3107" />
    <path
       style="fill:#ffffff;stroke:#000000;stroke-width:0.529167;stroke-linecap:square;stroke-dasharray:none;stroke-opacity:1"
       d="m 156.53714,35.886993 1.31461,-2.099458"
       id="path3109" />
  </g>
</svg>
